<svg xmlns="http://www.w3.org/2000/svg" xmlns:xlink="http://www.w3.org/1999/xlink" width="500" zoomAndPan="magnify" viewBox="0 0 375 374.999991" height="500" preserveAspectRatio="xMidYMid meet" version="1.0"><defs><clipPath id="3075cb7856"><path d="M 63.730469 61.4375 L 311.230469 61.4375 L 311.230469 313.4375 L 63.730469 313.4375 Z M 63.730469 61.4375 " clip-rule="nonzero"/></clipPath><clipPath id="f420296333"><path d="M 63.730469 61.4375 L 154 61.4375 L 154 151 L 63.730469 151 Z M 63.730469 61.4375 " clip-rule="nonzero"/></clipPath><clipPath id="6167bf62a0"><path d="M 153 61.4375 L 280 61.4375 L 280 313.4375 L 153 313.4375 Z M 153 61.4375 " clip-rule="nonzero"/></clipPath><clipPath id="21ceec2922"><path d="M 279 98 L 311.230469 98 L 311.230469 130 L 279 130 Z M 279 98 " clip-rule="nonzero"/></clipPath></defs><g clip-path="url(#3075cb7856)"><path fill="#0075ff" d="M 153.191406 150.53125 L 153.191406 61.4375 L 63.804688 61.4375 Z M 311.1875 129.949219 L 279.007812 98.253906 L 234.265625 142.707031 L 153.191406 61.4375 L 153.191406 313.554688 L 279.007812 187.445312 L 279.007812 129.949219 Z M 311.1875 129.949219 " fill-opacity="1" fill-rule="nonzero"/></g><g clip-path="url(#f420296333)"><path fill="#62ccfd" d="M 63.804688 61.4375 L 153.191406 150.53125 L 153.191406 61.4375 L 63.804688 61.4375 " fill-opacity="1" fill-rule="nonzero"/></g><g clip-path="url(#6167bf62a0)"><path fill="#0075ff" d="M 153.191406 313.554688 L 153.191406 61.4375 L 279.007812 187.445312 L 153.191406 313.554688 " fill-opacity="1" fill-rule="nonzero"/></g><path fill="#62ccfd" d="M 279.007812 98.253906 L 279.007812 187.445312 L 234.265625 142.707031 Z M 279.007812 98.253906 " fill-opacity="1" fill-rule="nonzero"/><g clip-path="url(#21ceec2922)"><path fill="#0075ff" d="M 279.007812 98.253906 L 279.007812 129.949219 L 311.1875 129.949219 Z M 279.007812 98.253906 " fill-opacity="1" fill-rule="nonzero"/></g></svg>